<svg width="70" height="70" viewBox="0 0 70 70" fill="none" xmlns="http://www.w3.org/2000/svg">
<path d="M38.1325 20.44C38.1325 18.55 36.61 17.5 34.4575 17.5C32.2 17.5 30.6775 18.6025 30.6775 20.4925L31.2388 40.8353C31.288 42.6176 32.6648 43.9993 34.4478 43.9994V43.9994C36.2369 43.9995 37.6212 42.6093 37.6624 40.8207L38.1325 20.44ZM30.625 51.6775C30.625 53.83 32.2525 55.4575 34.3525 55.4575C36.6625 55.4575 38.185 53.725 38.185 51.6775C38.185 49.63 36.6625 47.845 34.3525 47.845C32.2525 47.845 30.625 49.525 30.625 51.6775Z" fill="#868E96"/>
<path d="M65 61.4375H5C4.24508 61.4375 3.76239 60.633 4.11765 59.9669L34.1176 3.71691C34.4941 3.01103 35.5059 3.01103 35.8824 3.71691L65.8823 59.9669C66.2376 60.633 65.7549 61.4375 65 61.4375Z" stroke="#868E96" stroke-width="4"/>
</svg>
