<svg width="124" height="18" viewBox="0 0 124 18" fill="none" xmlns="http://www.w3.org/2000/svg">
<path d="M37.184 4.12H41.456C42.5867 4.12 43.4347 4.34933 44 4.808C44.5653 5.256 44.848 5.98667 44.848 7C44.848 7.608 44.7573 8.09333 44.576 8.456C44.3947 8.808 44.0853 9.12267 43.648 9.4C44.128 9.60267 44.48 9.896 44.704 10.28C44.9387 10.664 45.056 11.1973 45.056 11.88C45.056 12.936 44.7467 13.72 44.128 14.232C43.5093 14.744 42.64 15 41.52 15H37.184V4.12ZM41.408 10.456H39.392V13.112H41.408C41.888 13.112 42.24 13.016 42.464 12.824C42.6987 12.632 42.816 12.28 42.816 11.768C42.816 10.8933 42.3467 10.456 41.408 10.456ZM41.344 6.008H39.392V8.6H41.36C42.192 8.6 42.608 8.168 42.608 7.304C42.608 6.44 42.1867 6.008 41.344 6.008ZM55.497 15L57.945 4.12H62.137L64.585 15H62.377L61.945 13.032H58.137L57.705 15H55.497ZM59.657 5.944L58.553 11.112H61.529L60.425 5.944H59.657ZM82.3894 14.824C81.2587 15.0693 80.24 15.192 79.3334 15.192C78.4267 15.192 77.7014 15.08 77.1574 14.856C76.6134 14.632 76.1867 14.2747 75.8774 13.784C75.568 13.2933 75.3547 12.7173 75.2374 12.056C75.12 11.3947 75.0614 10.5627 75.0614 9.56C75.0614 7.45867 75.3547 5.99733 75.9414 5.176C76.5387 4.344 77.632 3.928 79.2214 3.928C80.1387 3.928 81.2 4.072 82.4054 4.36L82.3414 6.12C81.2854 5.96 80.4054 5.88 79.7014 5.88C79.008 5.88 78.512 5.976 78.2134 6.168C77.9147 6.34933 77.6907 6.70133 77.5414 7.224C77.4027 7.74667 77.3334 8.63733 77.3334 9.896C77.3334 11.1547 77.4774 12.0293 77.7654 12.52C78.064 13 78.6507 13.24 79.5254 13.24C80.4107 13.24 81.3494 13.1653 82.3414 13.016L82.3894 14.824ZM95.9889 15H93.7809V4.12H95.9889V8.904L97.4609 8.744L99.2529 4.12H101.765L99.3969 9.576L101.829 15H99.2849L97.4609 10.664L95.9889 10.824V15Z" fill="#FF4C8B"/>
<path fill-rule="evenodd" clip-rule="evenodd" d="M12.3067 16.3808C12.087 16.6005 11.7309 16.6005 11.5112 16.3808L4.80948 9.67908C4.58981 9.45941 4.58981 9.10326 4.80948 8.88359L11.5112 2.18184C11.7309 1.96217 12.0871 1.96217 12.3067 2.18184L13.1022 2.97734C13.3219 3.19701 13.3219 3.55316 13.1022 3.77283L7.99146 8.88359C7.77179 9.10326 7.77179 9.45941 7.99146 9.67908L13.1022 14.7898C13.3219 15.0095 13.3219 15.3657 13.1022 15.5853L12.3067 16.3808Z" fill="#FF4C8B"/>
</svg>
