<svg width="554" height="130" viewBox="0 0 554 130" fill="none" xmlns="http://www.w3.org/2000/svg">
<path d="M0 7.99999C0 3.58172 3.58172 0 8 0H545.64C550.058 0 553.64 3.58172 553.64 8V121.293C553.64 125.711 550.058 129.293 545.64 129.293H8.00001C3.58173 129.293 0 125.711 0 121.293V7.99999Z" fill="white"/>
<path d="M27.3594 65.6387V69.6465H25.0156V58.2715H29.4531C30.3073 58.2715 31.0573 58.4277 31.7031 58.7402C32.3542 59.0527 32.8542 59.498 33.2031 60.0762C33.5521 60.6491 33.7266 61.3027 33.7266 62.0371C33.7266 63.1517 33.3438 64.0319 32.5781 64.6777C31.8177 65.3184 30.763 65.6387 29.4141 65.6387H27.3594ZM27.3594 63.7402H29.4531C30.0729 63.7402 30.5443 63.5944 30.8672 63.3027C31.1953 63.0111 31.3594 62.5944 31.3594 62.0527C31.3594 61.4954 31.1953 61.0449 30.8672 60.7012C30.5391 60.3574 30.0859 60.1803 29.5078 60.1699H27.3594V63.7402ZM49.4875 64.2168C49.4875 65.3366 49.2896 66.3184 48.8938 67.1621C48.4979 68.0059 47.9302 68.6569 47.1906 69.1152C46.4563 69.5736 45.6125 69.8027 44.6594 69.8027C43.7167 69.8027 42.8755 69.5762 42.1359 69.123C41.3964 68.6699 40.8234 68.0241 40.4172 67.1855C40.0109 66.3418 39.8052 65.373 39.8 64.2793V63.7168C39.8 62.597 40.0005 61.6126 40.4016 60.7637C40.8078 59.9095 41.3781 59.2559 42.1125 58.8027C42.8521 58.3444 43.6958 58.1152 44.6438 58.1152C45.5917 58.1152 46.4328 58.3444 47.1672 58.8027C47.9068 59.2559 48.4771 59.9095 48.8781 60.7637C49.2844 61.6126 49.4875 62.5944 49.4875 63.709V64.2168ZM47.1125 63.7012C47.1125 62.5085 46.899 61.6022 46.4719 60.9824C46.0448 60.3626 45.4354 60.0527 44.6438 60.0527C43.8573 60.0527 43.2505 60.36 42.8234 60.9746C42.3964 61.584 42.1802 62.4798 42.175 63.6621V64.2168C42.175 65.3783 42.3885 66.2793 42.8156 66.9199C43.2427 67.5605 43.8573 67.8809 44.6594 67.8809C45.4458 67.8809 46.05 67.5736 46.4719 66.959C46.8938 66.3392 47.1073 65.4382 47.1125 64.2559V63.7012ZM64.85 66.3652L66.3813 58.2715H68.7172L66.1938 69.6465H63.8344L61.9828 62.0371L60.1313 69.6465H57.7719L55.2484 58.2715H57.5844L59.1234 66.3496L60.9984 58.2715H62.9828L64.85 66.3652ZM81.6344 64.7168H77.1344V67.7637H82.4156V69.6465H74.7906V58.2715H82.4V60.1699H77.1344V62.8809H81.6344V64.7168ZM92.8016 65.4824H90.9344V69.6465H88.5906V58.2715H92.8172C94.1609 58.2715 95.1974 58.571 95.9266 59.1699C96.6557 59.7689 97.0203 60.6152 97.0203 61.709C97.0203 62.485 96.851 63.1335 96.5125 63.6543C96.1792 64.1699 95.6714 64.5814 94.9891 64.8887L97.45 69.5371V69.6465H94.9344L92.8016 65.4824ZM90.9344 63.584H92.825C93.4135 63.584 93.8693 63.4355 94.1922 63.1387C94.5151 62.8366 94.6766 62.4225 94.6766 61.8965C94.6766 61.36 94.5229 60.9382 94.2156 60.6309C93.9135 60.3236 93.4474 60.1699 92.8172 60.1699H90.9344V63.584ZM110.453 64.7168H105.953V67.7637H111.234V69.6465H103.609V58.2715H111.219V60.1699H105.953V62.8809H110.453V64.7168ZM117.409 69.6465V58.2715H120.909C121.909 58.2715 122.803 58.498 123.589 58.9512C124.381 59.3991 124.998 60.0397 125.441 60.873C125.883 61.7012 126.105 62.6439 126.105 63.7012V64.2246C126.105 65.2819 125.886 66.222 125.448 67.0449C125.016 67.8678 124.404 68.5059 123.613 68.959C122.821 69.4121 121.928 69.6413 120.933 69.6465H117.409ZM119.753 60.1699V67.7637H120.886C121.803 67.7637 122.503 67.4642 122.988 66.8652C123.472 66.2663 123.719 65.4095 123.73 64.2949V63.6934C123.73 62.5371 123.49 61.6621 123.011 61.0684C122.532 60.4694 121.831 60.1699 120.909 60.1699H119.753ZM141.4 69.6465V58.2715H145.384C146.765 58.2715 147.811 58.5371 148.525 59.0684C149.239 59.5944 149.595 60.3678 149.595 61.3887C149.595 61.946 149.452 62.4382 149.166 62.8652C148.879 63.2871 148.481 63.597 147.97 63.7949C148.554 63.9408 149.012 64.235 149.345 64.6777C149.684 65.1204 149.853 65.6621 149.853 66.3027C149.853 67.3965 149.504 68.2246 148.806 68.7871C148.108 69.3496 147.114 69.6361 145.822 69.6465H141.4ZM143.744 64.6934V67.7637H145.752C146.304 67.7637 146.733 67.6335 147.041 67.373C147.353 67.1074 147.509 66.7428 147.509 66.2793C147.509 65.2376 146.97 64.709 145.892 64.6934H143.744ZM143.744 63.0371H145.478C146.66 63.0163 147.252 62.5449 147.252 61.623C147.252 61.1074 147.101 60.7376 146.798 60.5137C146.502 60.2845 146.03 60.1699 145.384 60.1699H143.744V63.0371ZM159.903 63.3965L162.27 58.2715H164.833L161.098 65.5215V69.6465H158.716V65.5215L154.981 58.2715H157.552L159.903 63.3965Z" fill="#2D2D2D"/>
<g clip-path="url(#clip0)">
<path d="M281.062 65.833C281.062 52.549 288.136 45.961 302.014 45.961C307.684 45.961 311.032 46.987 313.895 48.283L311.465 54.925C307.846 53.953 306.335 53.575 302.122 53.52C295.21 53.413 290.405 57.3 290.405 65.292C290.405 73.285 295.481 77.551 303.203 77.551C306.928 77.551 309.143 77.227 312.057 76.471L314.002 83.383C310.33 84.733 307.145 85.219 302.231 85.219C288.245 85.219 281.062 78.361 281.062 65.833ZM339.71 69.937C339.71 65.185 338.523 61.567 333.552 61.567C328.693 61.567 327.344 65.185 327.344 69.992C327.344 75.067 328.856 78.145 333.661 78.145C338.523 78.145 339.709 74.959 339.709 69.937H339.71ZM318.27 70.207C318.27 60.432 324.373 54.438 333.715 54.438C344.191 54.438 348.891 60.325 348.891 69.938C348.891 79.981 342.3 85.328 333.228 85.328C323.509 85.328 318.27 79.441 318.27 70.206V70.207ZM351.81 55.195H361.476L366.444 71.179L367.956 77.065L369.631 71.179L375.137 55.195H384.589L373.14 84.679H362.447L351.81 55.195ZM405.27 77.173V72.53L400.845 72.639C398.197 72.692 396.255 73.556 396.255 75.716C396.255 77.444 397.928 78.2 399.548 78.2C401.276 78.2 403.328 77.713 405.271 77.174L405.27 77.173ZM387.505 76.255C387.505 68.803 394.311 67.291 400.143 67.291H405.271V65.454C405.271 62.863 403.597 62.107 399.927 62.107C397.009 62.107 393.877 62.755 391.123 63.402L389.343 56.868C392.691 55.573 396.579 54.493 401.276 54.493C410.403 54.493 414.075 57.085 414.075 63.727V76.849C414.075 77.821 415.047 78.037 416.72 78.091L416.396 84.895C415.695 84.949 414.991 84.949 414.289 84.949C410.727 84.949 406.947 84.355 406.137 81.817C403.977 83.492 400.899 85.165 397.657 85.165C391.179 85.165 387.505 82.141 387.505 76.255ZM423.419 43.962H432.437V84.68H423.419V43.962ZM457.441 66.913C457.549 63.349 455.983 60.865 453.067 60.865C449.989 60.865 447.992 63.025 447.829 66.913H457.441ZM438.593 70.368C438.593 58.327 444.913 54.493 453.823 54.493C463.111 54.493 466.676 60.541 466.676 69.451V72.691H447.56C447.507 77.335 451.177 78.199 455.873 78.199C457.873 78.199 461.221 77.551 464.3 77.011L465.65 83.868C462.356 84.841 458.144 85.328 454.58 85.328C444.86 85.328 438.593 82.141 438.593 70.368ZM472.835 55.195H481.853V58.165C483.636 56.815 487.524 54.438 491.467 54.438C500.7 54.438 501.348 59.514 501.348 66.211V84.68H492.383V66.967C492.383 62.917 491.467 62.215 488.44 62.215C485.741 62.215 483.312 63.079 481.853 63.781V84.679H472.835V55.195ZM510.205 75.499V61.837H505.887V55.195H510.205V49.146H519.169V55.195H528.297V61.837H519.169V75.445C519.169 77.605 519.98 77.767 522.411 77.767C524.408 77.767 528.783 77.173 528.783 77.173L529.647 84.247C527.54 84.841 524.679 85.273 522.519 85.273C516.848 85.273 510.205 85.543 510.205 75.499ZM229.648 42.956V23.996C207.188 23.996 189 42.185 189 64.644C189 87.104 207.189 105.294 229.648 105.294V86.334C217.66 86.334 207.96 76.633 207.96 64.644C207.96 52.657 217.66 42.956 229.648 42.956Z" fill="#000426"/>
<path d="M251.416 42.956C250.171 42.956 248.938 42.7108 247.788 42.2344C246.638 41.7579 245.593 41.0596 244.713 40.1793C243.832 39.299 243.134 38.254 242.658 37.1038C242.181 35.9536 241.936 34.7209 241.936 33.476C241.936 32.231 242.181 30.9983 242.658 29.8481C243.134 28.698 243.832 27.6529 244.713 26.7726C245.593 25.8923 246.638 25.194 247.788 24.7176C248.938 24.2412 250.171 23.996 251.416 23.996C253.93 23.996 256.341 24.9948 258.119 26.7726C259.897 28.5504 260.896 30.9617 260.896 33.476C260.896 35.9902 259.897 38.4015 258.119 40.1793C256.341 41.9572 253.93 42.956 251.416 42.956Z" fill="#00D8D5"/>
<path d="M251.257 105.293C248.743 105.293 246.331 104.294 244.554 102.516C242.776 100.739 241.777 98.3273 241.777 95.813C241.777 93.2988 242.776 90.8875 244.554 89.1096C246.331 87.3318 248.743 86.333 251.257 86.333C253.771 86.333 256.183 87.3318 257.96 89.1096C259.738 90.8875 260.737 93.2988 260.737 95.813C260.737 98.3273 259.738 100.739 257.96 102.516C256.183 104.294 253.771 105.293 251.257 105.293Z" fill="#EA048C"/>
<path d="M251.337 64.644C251.337 76.633 241.637 86.334 229.648 86.334V42.955C241.636 42.955 251.337 52.655 251.337 64.643" fill="#000426"/>
</g>
<defs>
<clipPath id="clip0">
<rect width="340.64" height="81.293" fill="white" transform="translate(189 24)"/>
</clipPath>
</defs>
</svg>
